<?xml version="1.0" encoding="UTF-8" standalone="no"?>
<!-- Created with Inkscape (http://www.inkscape.org/) -->

<svg
   width="10.583333mm"
   height="10.583333mm"
   viewBox="0 0 10.583333 10.583333"
   version="1.1"
   id="svg1"
   inkscape:version="1.3.2 (091e20e, 2023-11-25, custom)"
   sodipodi:docname="moon.svg"
   xmlns:inkscape="http://www.inkscape.org/namespaces/inkscape"
   xmlns:sodipodi="http://sodipodi.sourceforge.net/DTD/sodipodi-0.dtd"
   xmlns="http://www.w3.org/2000/svg"
   xmlns:svg="http://www.w3.org/2000/svg">
  <sodipodi:namedview
     id="namedview1"
     pagecolor="#505050"
     bordercolor="#ffffff"
     borderopacity="1"
     inkscape:showpageshadow="0"
     inkscape:pageopacity="0"
     inkscape:pagecheckerboard="1"
     inkscape:deskcolor="#505050"
     inkscape:document-units="mm"
     inkscape:zoom="5.9794052"
     inkscape:cx="10.954267"
     inkscape:cy="23.999043"
     inkscape:window-width="1920"
     inkscape:window-height="1017"
     inkscape:window-x="-8"
     inkscape:window-y="-8"
     inkscape:window-maximized="1"
     inkscape:current-layer="layer1" />
  <defs
     id="defs1" />
  <g
     inkscape:label="Layer 1"
     inkscape:groupmode="layer"
     id="layer1">
    <g
       id="g1"
       transform="translate(1.2087208,-0.27283324)"
       style="fill:#ffff00">
      <path
         id="path1"
         style="fill:#ffff00;fill-opacity:1;stroke-width:0.0261423;stroke-linecap:round;stroke-linejoin:round;paint-order:stroke fill markers"
         d="M 2.2538,1.500271 A 4.3370743,4.3370743 0 0 0 0,5.2916665 4.3370743,4.3370743 0 0 0 4.337062,9.6287285 4.3370743,4.3370743 0 0 0 7.714368,7.9988195 4.3370743,4.3370743 0 0 1 5.631207,8.5444885 4.3370743,4.3370743 0 0 1 1.294093,4.2073735 4.3370743,4.3370743 0 0 1 2.2538,1.500271 Z" />
      <path
         id="path4"
         style="fill:#ffff00;fill-opacity:1;stroke-width:0.0135678;stroke-linecap:round;stroke-linejoin:round;paint-order:stroke fill markers"
         d="m 5.704192,4.3691285 c -0.01775,0 0.0061,-0.8787321 -0.274803,-1.1596285 C 5.148495,2.9286082 4.269765,2.9524587 4.269765,2.9346984 c 0,-0.017753 0.87873,0.00612 1.159624,-0.274804 C 5.710285,2.3790003 5.686432,1.500271 5.704192,1.500271 c 0.01775,0 -0.0061,0.8787293 0.274805,1.1596234 C 6.25989,2.9407908 7.13862,2.916938 7.13862,2.9346984 7.13862,2.9524514 6.25989,2.9285784 5.978997,3.2095 5.698103,3.4903964 5.721953,4.3691285 5.704192,4.3691285 Z"
         sodipodi:nodetypes="sasasasas" />
      <path
         id="path5"
         style="fill:#ffff00;fill-opacity:1;stroke-width:0.00425433;stroke-linecap:round;stroke-linejoin:round;paint-order:stroke fill markers"
         d="m 7.333185,2.5865283 c -0.0056,0 0.0019,-0.2755312 -0.08617,-0.363608 -0.08808,-0.088081 -0.36361,-0.080601 -0.36361,-0.08617 0,-0.00556 0.275533,0.00185 0.36361,-0.086168 0.08808,-0.088077 0.0806,-0.363608 0.08617,-0.363608 0.0056,0 -0.0018,0.2755311 0.08617,0.363608 0.08808,0.088077 0.36361,0.080599 0.36361,0.086168 0,0.00556 -0.275533,-0.00185 -0.36361,0.08617 -0.08808,0.088077 -0.0806,0.363608 -0.08617,0.363608 z"
         sodipodi:nodetypes="sasasasas" />
      <path
         id="path6"
         style="fill:#ffff00;fill-opacity:1;stroke-width:0.00793503;stroke-linecap:round;stroke-linejoin:round;paint-order:stroke fill markers"
         d="m 7.54823,4.9725065 c -0.01039,0 0.0035,-0.513912 -0.160714,-0.67819 -0.16428,-0.164278 -0.678191,-0.150331 -0.678191,-0.160716 0,-0.01039 0.513911,0.0036 0.678191,-0.160715 0.164276,-0.164281 0.15033,-0.6781923 0.160714,-0.6781923 0.01039,0 -0.0035,0.5139113 0.160718,0.6781923 0.164278,0.164275 0.678189,0.150329 0.678189,0.160713 0,0.01039 -0.513911,-0.0036 -0.678189,0.160718 -0.164278,0.164278 -0.150331,0.67819 -0.160718,0.67819 z"
         sodipodi:nodetypes="sasasasas" />
    </g>
  </g>
</svg>
